<?xml version="1.0" encoding="UTF-8"?>
<svg version="1.1" viewBox="0 0 1308 1308" width="327" height="327" xmlns="http://www.w3.org/2000/svg">
<path transform="translate(653,312)" d="m0 0 3 1 5 10 14 21 13 14 7 8 8 7 10 8 16 10 16 8 13 5 8 3 9 2 5 2 16 3 9 1 42 1 1 1v61l-1 14-1 1-1 7-2 29-2 12-2 18-2 6-3 18-3 14-2 4-2 10-2 3-4 13-5 12-9 17-6 9-6 7h-2l-2 4-6 8-11 9-13 12-17 12-13 8-21 12-21 10-20 8-12 5-8-1-28-11-22-10-21-12-17-11-15-11-13-12-20-20-6-8-7-10-5-9-3-4-2-8-4-9-3-9-5-16-6-25-4-22-2-19-2-6-1-21-2-22-1-1v-66l1-1 44-1 10-2 16-3 4-2 9-2 15-5 13-6 9-5 17-11 13-12 8-8h2l2-4 8-9 8-11 6-9 6-10zm3 78v146l1 1h136l6-2 2-23 2-15 1-13v-24l-8-3-24-4-15-4-24-8-25-12-19-12-22-18-8-7zm-145 149-1 2 3 21 3 13 7 25 8 21 6 11 8 11 11 12 9 9 12 9 10 7 18 11 22 12 16 7 7 3h2v-173l-4-1z" fill="#0F77F2"/>
<path transform="translate(725,576)" d="m0 0h7l26 10 23 9 13 6v2l-35 12-23 9-7 2-21-7-19-7-21-7-4-1 1-4 28-11 30-12z" fill="#FEFEFE"/>
<path transform="translate(692,452)" d="m0 0h19l1 1 1 54 5 4h14l2-1 1-4 1-53 1-1h17l1 1v42l-1 13-3 11-9 9-9 2-5 2h-13l-14-5-7-8-2-4z" fill="#DA7A2E"/>
<path transform="translate(558,452)" d="m0 0h56l2 2v13l-6 9-9 10-9 12-10 11-1 3h37l2 3v10l-1 2-39 1h-24l-2-2v-10l4-8 9-10 9-13 8-8 5-6 1-3h-32l-2-2v-12z" fill="#FEFEFE"/>
<path transform="translate(553,572)" d="m0 0h62l1 1v18l-2 1h-18v67l-4 1h-19l-1-1v-67h-19l-1-1v-18z" fill="#D87A2F"/>
<path transform="translate(165,836)" d="m0 0 14 1 5 2 4-3h9l8 7h3l2-4 6-3h8l6 4 5 4 1 3v37l-5 1h-14l-1-1-1-32h-6l-1 32-4 1h-14l-2-1-1-32h-6v32l-9 1-8-1v-47z" fill="#0F77F2"/>
<path transform="translate(917,940)" d="m0 0h10l1 2 1 12h-9l4 9v7l-7 8-7 2h-18v3l26 1 8 7 2 4v11l-5 5-10 4h-25l-11-4-3-5-1-4 5-7-2-5v-8l3-4-1-9-1-6 4-7 5-4 10-1h13l2-4zm-19 20-2 2v5l4 3 5-2-1-7zm-5 39-2 1v3l5 1h14l2-1v-3z" fill="#0F77F2"/>
<path transform="translate(1197,827)" d="m0 0 9 1 1 1v7l-1 3-2 1h-8l4 6v12l-5 5-8 4-6 1h-9v2l22 1 6 2 6 8 1 6-4 8-4 4-3 1h-32l-7-1-5-5v-7l3-10-1-7 3-6 3-3-3-1-1-2v-12l4-5 11-5 16-1 3-5zm-23 21-1 4 3 4h6l2-1v-6l-1-1zm-4 35-3 1 2 5 7 3h8l4-2-1-5-1-1z" fill="#0F77F2"/>
<path transform="translate(45,820)" d="m0 0h51v13l-5 10-9 10-6 9-4 5 23 1 1 1v15l-2 1h-48l-2-1v-14l7-7 10-14 9-11-25-1-1-1v-15z" fill="#0F77F2"/>
<path transform="translate(420,820)" d="m0 0h19l1 1 1 46 5 4h5l4-4 1-46 1-1h14l1 1v47l-1 7-9 9-10 2h-12l-11-3-8-7-1-2z" fill="#0F77F2"/>
<path transform="translate(935,820)" d="m0 0h17l8 4 5 5 6 11 1 6-10 2h-9l-4-9v-2l-6-1-5 4-2 7v14l2 7 4 3h5l4-5 2-6h10l8 2 1 3-5 10-8 8-14 4-10-2-8-3-8-9-3-6-1-9v-11l2-10 5-8 7-6z" fill="#0F77F2"/>
<path transform="translate(246,820)" d="m0 0h17l2 4-1 16 7-3 2-1h8l6 4 5 6 3 6 1 4v11l-4 10-6 7-12 3-11-4h-4l-3 2h-8l-2-6zm22 29-3 3-1 4v13l2 3h9l1-1v-18l-4-4z" fill="#0F77F2"/>
<path transform="translate(614,936)" d="m0 0h18l1 1v14l-1 4 3-1 1-2h18l5 4 1 3v40l-11 1-8-1-1-34h-5l-1 2-1 32-2 1h-16l-1-1z" fill="#0F77F2"/>
<path transform="translate(353,836)" d="m0 0h14l12 6 4 9 1 33-1 1h-18l-6-1-7 3-7-1-9-4-4-8 1-7 5-7 10-6v-1l-12-1-1-3 3-6 7-4zm4 13-6 4v2h11l1-5-1-1zm2 15-7 4 1 4h9l2-1v-6z" fill="#0F77F2"/>
<path transform="translate(702,951)" d="m0 0 11 1 3 3 3 5 1 5v34l-2 1h-17l-1-1-1-34-7-1v35l-2 1h-17l-1-1v-46l1-1z" fill="#0F77F2"/>
<path transform="translate(485,836)" d="m0 0 16 1 1 3 6-3 1-1h10l6 3 6 8 1 3v34l-4 1h-15l-1-1v-32h-7l-1 32-3 1h-16l-1-1v-47z" fill="#0F77F2"/>
<path transform="translate(121,836)" d="m0 0h15l9 4 6 4 1 3v36l-2 2h-13l-2-3-4 2-7 2h-10l-8-4-3-5v-10l4-6 8-6 15-1 1-4-8 1-2 1h-16l-1-4 6-7zm7 28-4 4v4h6l2-2v-5z" fill="#0F77F2"/>
<path transform="translate(640,836)" d="m0 0h11l9 4 6 5 5 10 1 3v7l-32 2 1 4h9l3-4 18-1 1 5-6 9-3 3-11 3h-13l-10-4-5-4-4-9v-13l4-10 6-6zm3 13-3 4v3h11l1-2-5-5z" fill="#0F77F2"/>
<path transform="translate(1117,836)" d="m0 0h11l10 4 7 8 3 8v8l-2 1-30 2v4h9l3-1 1-2 14-2 5 1v7l-6 7-5 3-13 3-11-2-6-3-5-4-6-10v-12l6-11 6-5zm3 13-4 4v3h11l1-4-3-3z" fill="#0F77F2"/>
<path transform="translate(1230,836)" d="m0 0h12l10 5 7 8 4 11v4l-2 1-29 2 1 4h9l3-4 18-1-1 5-6 9-6 4-12 3-12-2-8-4-6-8-2-9 1-9 3-7 6-7zm4 12-2 2v5l2 1h8v-4l-5-4z" fill="#0F77F2"/>
<path transform="translate(520,951)" d="m0 0h12l8 2 8 8 4 8 1 10-2 1-12 1-1 1 10 1 4 1-2 5-7 7-5 3-6 1h-10l-9-2-6-4-6-10-1-4v-10l5-10 8-7zm0 13v4h12v-4zm1 15-2 2 6 7h6l2-4-1-4z" fill="#0F77F2"/>
<path transform="translate(838,951)" d="m0 0h12l10 3 7 8 2 9v9l-3 8-7 8-5 3-5 1h-12l-7-2-7-5-6-12-1-9 5-11 5-6 5-3zm4 12-3 3-2 10 2 10 2 2h5l2-2v-21z" fill="#0F77F2"/>
<path transform="translate(997,836)" d="m0 0h11l10 4 6 5 4 8v16l-3 7-4 5-9 4-10 2-12-3-10-9-4-7v-12l6-12 7-5zm3 13-5 10 1 9 4 4 4 1 4-2v-18l-4-4z" fill="#0F77F2"/>
<path transform="translate(694,619)" d="m0 0 8 2 18 7 8 3 5-1 21-8 9-2 1 1v14l-4 8-7 7-10 5-5 1h-19l-12-4-6-4-4-5-5-13v-9z" fill="#FEFEFE"/>
<path transform="translate(352,951)" d="m0 0h12l9 2 6 5 4 7 1 6v9l-2 8-9 9-9 3h-10l-9-2-8-7-4-8-1-3v-11l4-8 7-7zm4 13-4 5-1 8 2 7 3 3h5l3-4v-18l-1-1z" fill="#0F77F2"/>
<path transform="translate(750,951)" d="m0 0 16 1 8 7 5 6 1 4v13l-3 7-7 7-6 3-6 1h-11l-10-4-7-8-2-6v-14l3-6 9-9zm0 13-2 3-1 9 2 9 2 2 7-1 2-3v-17l-2-2z" fill="#0F77F2"/>
<path transform="translate(733,836)" d="m0 0h13l10 5 3 3 1 4-3 3-8 1v2l9 2 5 5 1 3v10l-8 9-14 4-10-1-11-4-5-6v-4l6-1h5l-10-13-1-4 3-8 8-7zm5 12-2 1v2l8 1-1-3zm-6 20-1 3 2 1h11l-1-4z" fill="#0F77F2"/>
<path transform="translate(836,836)" d="m0 0 19 1 4 10 2 11 2 1 3-9 3-11 2-2h13l-1 8-8 22-7 20-4 7-4 5-2 1h-15l-6-1v-11l3-1h11l-1-8-9-24-5-13z" fill="#0F77F2"/>
<path transform="translate(930,952)" d="m0 0h20l2 5 2 7 3 7 2 1 1-9 5-11h14l-1 5-4 10-12 33-4 8-7 6-2 1h-16l-1-1v-14h15l-4-10-10-27-3-7z" fill="#0F77F2"/>
<path transform="translate(456,936)" d="m0 0h43l1 1v14l-1 1h-11v47l-2 1h-17l-1-1v-47h-10l-3-3z" fill="#0F77F2"/>
<path transform="translate(405,932)" d="m0 0h22l1 1v11l-2 2-1-1-9-1v8h11v11l-3 1h-9l1 35-3 1h-15l-2-1v-35h-7l-1-1v-8l1-3h7v-10l7-8z" fill="#0F77F2"/>
<path transform="translate(819,821)" d="m0 0 5 1v14h6l2 2v12l-8 1v14l1 6 7 2v10l-2 3-4 1h-8l-9-4-5-5v-27h-7l-1-1v-13l1-1h7v-14z" fill="#0F77F2"/>
<path transform="translate(579,951)" d="m0 0h9l8 2 7 8 1 2v6l-4 2-11 1-2-6v-2h-7v20l8-2 1-2h15v9l-7 8-4 2-7 1h-10l-10-5-6-9-2-11 3-14 5-6 5-3z" fill="#0F77F2"/>
<path transform="translate(568,836)" d="m0 0 19 1 4 8 2 11 4-1 4-12 4-6 4-1 7 1-1 10-12 32-3 5-2 1h-12l-2-2-7-20-8-20z" fill="#0F77F2"/>
<path transform="translate(772,820)" d="m0 0h19l1 1v63l-3 1h-16l-1-1z" fill="#0F77F2"/>
<path transform="translate(1069,820)" d="m0 0h18l1 1v63l-3 1h-15l-2-1v-63z" fill="#0F77F2"/>
<path transform="translate(304,820)" d="m0 0h19l1 1v63l-10 1h-9l-1-1z" fill="#0F77F2"/>
<path transform="translate(788,936)" d="m0 0h19l1 1v62l-2 1h-16l-2-1z" fill="#0F77F2"/>
<path transform="translate(1037,820)" d="m0 0h18l1 1v63l-4 1h-10l-5-1z" fill="#0F77F2"/>
<path transform="translate(601,219)" d="m0 0h4l-1 10-5 14-7 11-19 19-10 6-6 1-1-4 6-17 8-15 11-12 9-8 7-4z" fill="#0F77F2"/>
<path transform="translate(541,820)" d="m0 0h19l1 63-7 2h-8l-4-1-1-2z" fill="#0F77F2"/>
<path transform="translate(704,220)" d="m0 0h7l8 5 11 9 10 13 10 21 3 10v3l-6-1-15-10-5-4v-2l-3-1-8-10-8-15-4-9-1-6z" fill="#0F77F2"/>
<path transform="translate(681,836)" d="m0 0 15 1 1 5 7-6h7l1 2v17l-1 1h-11v28l-3 1h-16l-1-1v-47z" fill="#0F77F2"/>
<path transform="translate(513,1052)" d="m0 0h6l2 7h2l1-7h11v4l-6 10 1 5 4 8 4 2-1-3v-17l1-1h17l1 1v22l-7 1-2-1-1-15h-2l2 15-6 1h-12l-3-1-3-8h-1v8l-1 1h-6l-2-1v-30z" fill="#F48D34"/>
<path transform="translate(905,340)" d="m0 0 3 1 4 13v10l-3 9-2 9-9 15-3 7-3-1-3-7-1-6v-11l4-18 5-12z" fill="#0F77F2"/>
<path transform="translate(721,300)" d="m0 0h22l18 6 10 6 3 3 6 3-1 2h-46l-3-3-10-4-8-6v-3z" fill="#0F77F2"/>
<path transform="translate(944,523)" d="m0 0h3l-1 5-1 1-1 12-8 16-7 8-10 10-9 5h-2l1-9 5-15 6-11 3-3 4-7 8-7z" fill="#0F77F2"/>
<path transform="translate(821,266)" d="m0 0 5 2 10 15 5 12 2 7 1 8v18l-1 3-5-2-6-7-9-19-3-8v-27z" fill="#0F77F2"/>
<path transform="translate(365,524)" d="m0 0 11 6 6 5 6 9 8 16 4 12v8l-5-2-9-6-10-10-9-15-3-7v-15z" fill="#0F77F2"/>
<path transform="translate(484,267)" d="m0 0h3l1 2 1 15-1 13-4 9-8 16-4 5-2 4-3-1-3-7v-15l5-17 4-10 7-9z" fill="#0F77F2"/>
<path transform="translate(565,300)" d="m0 0h22l10 4-2 4-10 7-8 3-6 2h-39l-4-2 18-11 10-4z" fill="#0F77F2"/>
<path transform="translate(925,392)" d="m0 0h3l3 7 1 5v11l-5 16-9 17-7 8h-2l-1-2v-25l5-16 9-17z" fill="#0F77F2"/>
<path transform="translate(401,339)" d="m0 0h2l9 12 4 10 4 17v13l-3 10h-4l-5-7-8-17-3-12-1-3v-8l3-7 1-7z" fill="#0F77F2"/>
<path transform="translate(768,244)" d="m0 0 5 2 6 3 8 8 8 13 5 14 3 14 1 6-4-2-8-8-5-4-9-11-6-10-4-13z" fill="#0F77F2"/>
<path transform="translate(380,392)" d="m0 0 4 1 8 13 5 12 3 9v28h-4l-9-13-6-12-5-18v-8l3-7z" fill="#0F77F2"/>
<path transform="translate(939,455)" d="m0 0 4 1 1 6v11l-6 16-4 8-6 9-10 10-2-1v-14l4-19 6-11 7-11z" fill="#0F77F2"/>
<path transform="translate(776,344)" d="m0 0h28l12 5 9 6 13 9 1 3-2 1h-21l-6-2-13-4-12-7-9-8z" fill="#0F77F2"/>
<path transform="translate(368,456)" d="m0 0 4 1 7 8 8 14 3 10 2 7v20l-4-2-8-9-6-9-6-11-2-15-2-3 1-4z" fill="#0F77F2"/>
<path transform="translate(537,244)" d="m0 0h3v14l-6 15-5 8-9 10-10 9-3 1 1-16 6-16 12-16 9-7z" fill="#0F77F2"/>
<path transform="translate(505,344)" d="m0 0h27l-2 4-8 8-9 5-6 3-9 2-2 1-9 1h-14v-4l8-8 13-8z" fill="#0F77F2"/>
<path transform="translate(912,645)" d="m0 0h3l-2 5-4 6-8 6-16 8-9 2-18 2 2-4 5-5 10-9 16-8 10-2z" fill="#0F77F2"/>
<path transform="translate(393,645)" d="m0 0 16 1 11 3 16 9 12 12 2 4-21-2-14-5-10-7-11-12z" fill="#0F77F2"/>
<path transform="translate(932,592)" d="m0 0h8l-1 7-7 11-7 6-14 8-8 3h-8l2-6 9-11 5-6 14-9z" fill="#0F77F2"/>
<path transform="translate(397,1060)" d="m0 0h14l3 3 1 4h2l2-5 2-2h10l1 1v6l-7 3 1 4 6 3v6l-7 1-5-2-4-8v-4h-2l1 3v10l-6 1-3-1-8 1-2-1v-22zm9 8-1 1v11h2v-12z" fill="#F38D35"/>
<path transform="translate(369,592)" d="m0 0h8l10 5 15 11 7 10 5 8v2l-9-1-12-5-11-8-10-11-4-5v-5z" fill="#0F77F2"/>
<path transform="translate(870,307)" d="m0 0 4 1 5 11 1 3v15l-4 16-5 11h-2l-5-14v-32l5-10z" fill="#0F77F2"/>
<path transform="translate(441,692)" d="m0 0h13l6 3 10 2 10 4v2l4 2 1 4-5 2-6 1h-13l-9-2-16-8-4-3 1-3z" fill="#0F77F2"/>
<path transform="translate(436,305)" d="m0 0 3 1 4 8 1 4v33l-3 7-2 6h-2l-6-17-3-10v-13l3-7 3-9z" fill="#0F77F2"/>
<path transform="translate(854,692)" d="m0 0h11l10 4v4l-10 6-13 5-7 1h-11l-9-3-2-1 2-4 16-8 11-3z" fill="#0F77F2"/>
<path transform="translate(677,1060)" d="m0 0h18l1 1v25l-5 5-2 1-9-1-4-4 2-6-2-3v-17zm8 7-1 1v7h4v-6z" fill="#DA8946"/>
<path transform="translate(306,1052)" d="m0 0h8l2 3 2 12 3 11v5l-1 1h-7l-2-2v-4l-5 1-2 4h-8l1-8 2-5 2-10zm3 16-1 3 3-1v-2z" fill="#F48E35"/>
<path transform="translate(584,1060)" d="m0 0h7l4 1 5-1h11l1 1v8l-3 6-1 8-6 1-2-1-1-6-2-1v6l-1 1h-7l-2-7-3-7z" fill="#F08E38"/>
<path transform="translate(665,1048)" d="m0 0 7 1v34l-2 1h-11l-5-2-2-2v-19l1-1h11v-11zm-4 19-2 6 1 3 4-1v-6l-1-2z" fill="#DC8A46"/>
<path transform="translate(478,1060)" d="m0 0h13l1 1v24l-3 5-6 2-8-2-2-3v-3l2-1 1-4h-2l-2-3v-8l2-5zm4 7-2 1v6l3 2 1-1v-6z" fill="#ED8D39"/>
<path transform="translate(789,732)" d="m0 0h34l11 6 2 2v3l-12 2-1 1h-14l-1-1-11-2-10-5-1-4z" fill="#0F77F2"/>
<path transform="translate(797,1048)" d="m0 0 7 1v34l-5 1h-9l-3-1-3-5v-14l4-4 7-1 1-10zm-4 19-1 1v7l4 1v-7l-1-2z" fill="#DD8A45"/>
<path transform="translate(337,1048)" d="m0 0h5l2 2v32l-4 2h-10l-5-5-2-9 2-7 4-3h7v-11zm-4 19-2 3 1 5 4 1v-7l-1-2z" fill="#D88A48"/>
<path transform="translate(486,732)" d="m0 0h38l-1 4-7 4-5 3-15 3h-10l-13-3 2-4 5-4z" fill="#0F77F2"/>
<path transform="translate(373,1060)" d="m0 0h15l1 1v22l-3 1h-9l-5-2-4-7v-8zm4 8-1 6 4 1v-6z" fill="#F78F34"/>
<path transform="translate(1009,1060)" d="m0 0h13l4 2 1 2v19l-7 1-2-1-7 1-3-1v-22zm8 9-1 2 1 9h2l-1-11z" fill="#F48E35"/>
<path transform="translate(862,1060)" d="m0 0h17l1 1v22l-7 1-3-1-4 1-5-2v-19zm6 8v7l1 5 2-1-1-10z" fill="#EE8D39"/>
<path transform="translate(450,1060)" d="m0 0h17l1 1v22l-6 1h-9l-3-1-1-2v-10zm6 9 1 9h1v-7z" fill="#EA8D3D"/>
<path transform="translate(837,1060)" d="m0 0h19v23l-7 1-2-2-1-13-2-1 1 15-6 1-3-3v-20z" fill="#F1903C"/>
<path transform="translate(736,1060)" d="m0 0h19l1 1v22h-18l-2-4zm8 7-1 1v6l1 2 4-1v-6l-1-2z" fill="#DF8B44"/>
<path transform="translate(538,1060)" d="m0 0h17l1 1v22l-7 1-2-1-1-15h-2l2 15-6 1-4-2 1-4v-17z" fill="#F08D36"/>
<path transform="translate(761,1060)" d="m0 0h18l1 1v22l-1 1h-6l-1-1-1-14-3-1v15l-6 1-2-1v-22z" fill="#DC8944"/>
<path transform="translate(933,1060)" d="m0 0h14l1 2v19l-1 2-3 1h-10l-5-5-1-2v-10l3-5zm4 7-2 4 1 5 4-1v-7z" fill="#E88C3D"/>
<path transform="translate(890,1060)" d="m0 0h12l2 2v15l-3 5-4 2-8-1-4-5-1-2v-9l4-6zm4 7-3 4 1 4h4v-6z" fill="#F08F3A"/>
<path transform="translate(565,1060)" d="m0 0h13l2 2v15l-3 5-6 2-7-2-4-5v-10l3-5zm5 7-3 3v5l4 1 1-1v-7z" fill="#EF8D38"/>
<path transform="translate(985,1060)" d="m0 0h13l4 4 1 3v8l-5 8h-11l-3-3-1-4v-10zm7 7-1 2v6h4l1-5-2-3z" fill="#F68F35"/>
<path transform="translate(633,1060)" d="m0 0h10l4 4 1 7-1 1h-7l-4 2v2l11-1 1 3-5 5h-10l-5-8v-8l4-6z" fill="#EC8C38"/>
<path transform="translate(706,1060)" d="m0 0h8l4 3 1 9h-11v4h9v5l-2 2-7 1-5-2-3-4v-13l4-4zm4 5 1 2z" fill="#E38B40"/>
<path transform="translate(348,1060)" d="m0 0h6l3 5 3 1v-5l1-1h5l1 1v5l-2 3-2 10-3 4h-6l-2-3-3-12z" fill="#F08E39"/>
<path transform="translate(908,1060)" d="m0 0h6l3 3 3 1 1-4h6l-1 5-2 5-2 9-3 4h-6l-2-7-3-9z" fill="#F58D32"/>
<path transform="translate(617,1048)" d="m0 0h6l1 1 1 33-2 2-7-1v-34z" fill="#CE8951"/>
<path transform="translate(957,1056)" d="m0 0h6l2 2 1 7-1 4-1 14-6 1-2-1-2-14-1-2v-7z" fill="#E38B40"/>
<path transform="translate(824,1052)" d="m0 0h7l1 1v30l-6 1-2-1z" fill="#DC8B48"/>
<path transform="translate(681,614)" d="m0 0 3 1 1 22 2 12v10l-1 1h-6l-1-4 1-41z" fill="#FEFEFE"/>
<path transform="translate(969,1060)" d="m0 0h7l1 1v22l-7 1-2-3v-20z" fill="#F89033"/>
<path transform="translate(437,1060)" d="m0 0h7v23l-1 1h-6l-1-1v-22z" fill="#CF8950"/>
<path transform="translate(905,485)" d="m0 0h2l1 3v29l-1 26h-3v-57z" fill="#0F77F2"/>
<path transform="translate(694,507)" d="m0 0 3 1 4 8 2 5h2v2h2v2h2v2h2l-1 3-10-4-6-7-2-4v-6h2z" fill="#F68E33"/>
<path transform="translate(575,637)" d="m0 0 2 4 6 15-3 3h-6v-17z" fill="#F88F32"/>
<path transform="translate(855,659)" d="m0 0v3l-11 12-4 2-2 4-4 4h-2l-2 4-8 7-4 2 6-7 24-24 5-6z" fill="#0F77F2"/>
<path transform="translate(738,452)" d="m0 0h16l1 1v42h-1l-1-39-4-2-5 1-5-1z" fill="#F88F32"/>
<path transform="translate(744,519)" d="m0 0 2 2-1 4-3 3-8 1 2-5h2v-2h2v-2z" fill="#F58C31"/>
<path transform="translate(891,594)" d="m0 0 1 4-5 13-10 19-2 1 2-6 11-23z" fill="#0F77F2"/>
<path transform="translate(405,540)" d="m0 0 2 1 1 15-3-1-1-14z" fill="#0F77F2"/>
<path transform="translate(972,1050)" d="m0 0 5 1-1 5h-6l-1-4z" fill="#EB8D3B"/>
<path transform="translate(437,1050)" d="m0 0h6l1 5-1 1h-5l-2-4z" fill="#E48B3F"/>
<path transform="translate(406,470)" d="m0 0 2 1-1 12h-2l-1-2 1-9z" fill="#0F77F2"/>
<path transform="translate(448,651)" d="m0 0 4 2 7 9-1 2-8-8z" fill="#0F77F2"/>
<path transform="translate(492,697)" d="m0 0 4 1 5 6-5-2z" fill="#0F77F2"/>
<path transform="translate(867,642)" d="m0 0 1 2-6 8-1-3z" fill="#0F77F2"/>
<path transform="translate(412,580)" d="m0 0h3l1 7-4-4z" fill="#0F77F2"/>
<path transform="translate(902,556)" d="m0 0h1v7l-3 1 1-7z" fill="#0F77F2"/>
<path transform="translate(433,627)" d="m0 0 4 4 2 6-5-5z" fill="#0F77F2"/>
<path transform="translate(898,573)" d="m0 0 2 1-2 6-2 1 1-7z" fill="#0F77F2"/>
<path transform="translate(896,446)" d="m0 0 3 1 1 5-3-1z" fill="#0F77F2"/>
<path transform="translate(440,639)" d="m0 0h2l3 5-1 2-4-5z" fill="#0F77F2"/>
<path transform="translate(544,728)" d="m0 0 4 1-1 3-3-1z" fill="#0F77F2"/>
<path transform="translate(894,587)" d="m0 0 2 3-2 3h-2l1-5z" fill="#0F77F2"/>
<path transform="translate(417,591)" d="m0 0 3 3-1 3-2-2z" fill="#0F77F2"/>
<path transform="translate(806,704)" d="m0 0h2l-2 4h-2z" fill="#0F77F2"/>
<path transform="translate(429,619)" d="m0 0 3 3-1 3-2-3z" fill="#0F77F2"/>
<path transform="translate(425,611)" d="m0 0 3 3-1 3-2-3z" fill="#0F77F2"/>
<path transform="translate(421,603)" d="m0 0 3 3-1 3-2-3z" fill="#0F77F2"/>
<path transform="translate(409,567)" d="m0 0 3 3v2l-3-1z" fill="#0F77F2"/>
<path transform="translate(901,463)" d="m0 0 2 1v4h-2l-1-3z" fill="#0F77F2"/>
<path transform="translate(413,440)" d="m0 0 3 1-1 3h-2z" fill="#0F77F2"/>
<path transform="translate(527,720)" d="m0 0 4 1 1 2-4-1z" fill="#0F77F2"/>
<path transform="translate(794,712)" d="m0 0h2v2l-4 1z" fill="#0F77F2"/>
<path transform="translate(410,456)" d="m0 0 1 3-2 2z" fill="#0F77F2"/>
<path transform="translate(421,420)" d="m0 0h2l-1 4z" fill="#0F77F2"/>
<path transform="translate(507,708)" d="m0 0 4 1-1 2z" fill="#0F77F2"/>
<path transform="translate(889,424)" d="m0 0 2 1-1 3z" fill="#0F77F2"/>
<path transform="translate(537,725)" d="m0 0 3 1-3 1z" fill="#0F77F2"/>
<path transform="translate(870,637)" d="m0 0v3z" fill="#0F77F2"/>
<path transform="translate(872,634)" d="m0 0v3z" fill="#0F77F2"/>
<path transform="translate(874,631)" d="m0 0v3z" fill="#0F77F2"/>
<path transform="translate(869,385)" d="m0 0 2 2h-2z" fill="#0F77F2"/>
<path transform="translate(762,729)" d="m0 0 2 1z" fill="#0F77F2"/>
<path transform="translate(521,717)" d="m0 0 2 1z" fill="#0F77F2"/>
<path transform="translate(868,640)" d="m0 0" fill="#0F77F2"/>
<path transform="translate(439,637)" d="m0 0" fill="#0F77F2"/>
<path transform="translate(761,730)" d="m0 0" fill="#0F77F2"/>
<path transform="translate(520,716)" d="m0 0" fill="#0F77F2"/>
<path transform="translate(506,707)" d="m0 0" fill="#0F77F2"/>
<path transform="translate(479,687)" d="m0 0" fill="#0F77F2"/>
<path transform="translate(478,686)" d="m0 0" fill="#0F77F2"/>
<path transform="translate(477,685)" d="m0 0" fill="#0F77F2"/>
<path transform="translate(476,684)" d="m0 0" fill="#0F77F2"/>
<path transform="translate(475,683)" d="m0 0" fill="#0F77F2"/>
<path transform="translate(474,682)" d="m0 0" fill="#0F77F2"/>
<path transform="translate(473,681)" d="m0 0" fill="#0F77F2"/>
<path transform="translate(472,680)" d="m0 0" fill="#0F77F2"/>
<path transform="translate(471,679)" d="m0 0" fill="#0F77F2"/>
<path transform="translate(470,678)" d="m0 0" fill="#0F77F2"/>
<path transform="translate(469,677)" d="m0 0" fill="#0F77F2"/>
<path transform="translate(468,676)" d="m0 0" fill="#0F77F2"/>
<path transform="translate(857,674)" d="m0 0" fill="#0F77F2"/>
<path transform="translate(856,658)" d="m0 0" fill="#0F77F2"/>
<path transform="translate(860,652)" d="m0 0" fill="#0F77F2"/>
<path transform="translate(445,646)" d="m0 0" fill="#0F77F2"/>
<path transform="translate(432,626)" d="m0 0" fill="#0F77F2"/>
<path transform="translate(418,429)" d="m0 0" fill="#0F77F2"/>
<path transform="translate(753,281)" d="m0 0" fill="#0F77F2"/>
</svg>
